<?xml version="1.0" encoding="utf-8"?>
<!-- Generator: Adobe Illustrator 22.1.0, SVG Export Plug-In . SVG Version: 6.00 Build 0)  -->
<svg version="1.1" id="Ebene_1" xmlns="http://www.w3.org/2000/svg" xmlns:xlink="http://www.w3.org/1999/xlink" x="0px" y="0px"
	 viewBox="0 0 537.1 246.4" style="enable-background:new 0 0 537.1 246.4;" xml:space="preserve">
<style type="text/css">
	.st0{clip-path:url(#SVGID_2_);fill:#1D71B8;}
	.st1{clip-path:url(#SVGID_4_);fill:#1D71B8;}
	.st2{clip-path:url(#SVGID_6_);fill:#1D71B8;}
	.st3{clip-path:url(#SVGID_8_);fill:#1D71B8;}
	.st4{clip-path:url(#SVGID_10_);fill:#1D71B8;}
	.st5{fill:none;}
</style>
<g>
	<g>
		<g>
			<g>
				<g>
					<g>
						<defs>
							<rect id="SVGID_1_" y="31.2" width="914.6" height="193.7"/>
						</defs>
						<clipPath id="SVGID_2_">
							<use xlink:href="#SVGID_1_"  style="overflow:visible;"/>
						</clipPath>
						<path class="st0" d="M387.4,148.7v-57c-8.5-4.3-13.9-5.9-20.2-5.9c-15.4,0-23.8,12.8-23.8,36.6c0,25.6,5.6,36.4,18.9,36.4
							C370.1,158.9,376.6,156.3,387.4,148.7 M403.3,103.4v31.9c0,11.7,0,16.9,0.4,23.6l0.6,12.1c0.2,4.8,0.4,8.9,0.4,11.9
							c0,24.5-13,37.5-37.5,37.5c-11.7,0-24.9-3.7-34.2-9.3c-1.1-0.4-1.3-1.1-1.3-2.2v-0.6c0,0,0.2-0.2,0.4-0.6l3.7-8.5
							c0.4-0.9,0.9-1.3,1.5-1.3c0.2,0,1.1,0.2,1.5,0.7c9.3,4.8,19.7,7.8,27.5,7.8c16,0,22.5-6.5,22.5-23.2c0-3.3-0.2-6.7-0.2-10.6
							c-0.2-5.2-0.4-8-0.4-8.7v-2.2c-9.8,8-18.9,11.5-29.3,11.5c-20.2,0-32.7-17.8-32.7-46.6c0-35.1,14.3-54.6,39.9-54.6
							c8.1,0,13.9,1.5,21.3,5.9v-3.5c0-1.9,0.4-2.4,2.4-2.4h10.8c1.7,0,2.6,0.4,2.6,1.5v0.9L403.3,103.4z"/>
					</g>
				</g>
			</g>
		</g>
	</g>
</g>
<g>
	<g>
		<g>
			<g>
				<g>
					<g>
						<defs>
							<rect id="SVGID_3_" y="31.2" width="914.6" height="193.7"/>
						</defs>
						<clipPath id="SVGID_4_">
							<use xlink:href="#SVGID_3_"  style="overflow:visible;"/>
						</clipPath>
						<path class="st1" d="M435.9,82.6C446.2,75,454,72,463.3,72c10,0,16.5,3.9,20.2,12.4c12.6-8.9,21-12.4,30.8-12.4
							c16,0,22.8,8.7,22.8,29.7v72c0,2-0.4,2.4-2.4,2.4h-10.8c-2.2,0-2.6-0.4-2.6-2.4v-72.6c0-10.6-4.1-15.4-13.4-15.4
							c-6.7,0-11.9,1.9-21.5,8.5v79.5v0.9c0,1.1-0.6,1.5-2.4,1.5h-10.8c-2,0-2.4-0.4-2.4-2.4v-72.4c0-10.4-4.6-15.6-13.7-15.6
							c-6.7,0-12.6,2.4-21,8.9v79.1c0,1.9-0.4,2.4-2.4,2.4h-10.8c-1.7,0-2.6-0.4-2.6-1.5v-0.9V98l-0.1-23.7c0-2,0.4-2.4,2.4-2.4
							h10.8c1.7,0,2.6,0.4,2.6,1.5v0.9L435.9,82.6z"/>
					</g>
				</g>
			</g>
		</g>
	</g>
</g>
<g>
	<g>
		<g>
			<g>
				<g>
					<g>
						<defs>
							<rect id="SVGID_5_" y="31.2" width="914.6" height="193.7"/>
						</defs>
						<clipPath id="SVGID_6_">
							<use xlink:href="#SVGID_5_"  style="overflow:visible;"/>
						</clipPath>
						<path class="st2" d="M211.4,82.8c10.3-7.6,18.1-10.6,27.4-10.6c10,0,16.5,3.9,20.2,12.4c12.6-8.9,21-12.4,30.8-12.4
							c16,0,22.8,8.7,22.8,29.7v72c0,1.9-0.4,2.4-2.4,2.4h-10.8c-2.2,0-2.6-0.4-2.6-2.4v-72.6c0-10.6-4.1-15.4-13.4-15.4
							c-6.7,0-11.9,2-21.5,8.5v79.5v0.9c0,1.1-0.6,1.5-2.4,1.5h-10.8c-2,0-2.4-0.4-2.4-2.4v-72.4c0-10.4-4.6-15.6-13.7-15.6
							c-6.7,0-12.6,2.4-21,8.9v79.1c0,1.9-0.4,2.4-2.4,2.4h-10.8c-1.7,0-2.6-0.4-2.6-1.5v-0.9V98.2l-0.1-23.7c0-2,0.4-2.4,2.4-2.4
							h10.8c1.7,0,2.6,0.4,2.6,1.5v0.9L211.4,82.8z"/>
					</g>
				</g>
			</g>
		</g>
	</g>
</g>
<g>
	<g>
		<g>
			<g>
				<g>
					<g>
						<defs>
							<rect id="SVGID_7_" y="32" width="914.6" height="193.7"/>
						</defs>
						<clipPath id="SVGID_8_">
							<use xlink:href="#SVGID_7_"  style="overflow:visible;"/>
						</clipPath>
						<path class="st3" d="M100.2,155.5c0-1.2-0.6-1.8-1.8-1.8c-54.5,0-56.9,0-63.8,0s-9.7-4.5-9.7-10s0-69.9,0-69.9
							c0-1.2-0.6-1.8-1.8-1.8L4.7,72c-1.2,0-1.8,0.6-1.8,1.8c0,54.5,0,60.6,0,65.7l0,0V151c0,16.3,7.4,24.7,24.8,24.7
							c2.4,0,70.7,0,70.7,0c1.2,0,1.8-0.6,1.8-1.8V155.5z"/>
					</g>
				</g>
			</g>
		</g>
	</g>
</g>
<g>
	<g>
		<g>
			<g>
				<g>
					<g>
						<defs>
							<rect id="SVGID_9_" y="32" width="914.6" height="193.7"/>
						</defs>
						<clipPath id="SVGID_10_">
							<use xlink:href="#SVGID_9_"  style="overflow:visible;"/>
						</clipPath>
						<path class="st4" d="M43,58.2c0,1.2,0.6,1.8,1.8,1.8c54.5,0,56.9,0,63.8,0s9.7,4.5,9.7,10s0,69.9,0,69.9
							c0,1.2,0.6,1.8,1.8,1.8h18.4c1.2,0,1.8-0.6,1.8-1.8c0-54.5,0-60.6,0-65.7l0,0V62.7c0-16.3-7.4-24.7-24.8-24.7
							c-2.4,0-70.7,0-70.7,0c-1.2,0-1.8,0.6-1.8,1.8L43,58.2z"/>
					</g>
				</g>
			</g>
		</g>
	</g>
</g>
<rect x="599.9" y="17.5" class="st5" width="1009.1" height="196"/>
</svg>
